<svg xmlns="http://www.w3.org/2000/svg" viewBox="0 0 100 100">
  <rect width="100" height="100" rx="30" fill="#463aa1"/>
  <path d="M50 20 C52 42, 58 48, 80 50 C58 52, 52 58, 50 80 C48 58, 42 52, 20 50 C42 48, 48 42, 50 20 Z" fill="#ffffff" stroke="#ffffff" stroke-width="4" stroke-linejoin="round"/>
  <path d="M75 25 C76 33, 79 36, 87 37 C79 38, 76 41, 75 49 C74 41, 71 38, 63 37 C71 36, 74 33, 75 25 Z" fill="#ffffff" stroke="#ffffff" stroke-width="2" stroke-linejoin="round"/>
  <path d="M33 60 C34 65, 36 67, 41 68 C36 69, 34 71, 33 76 C32 71, 30 69, 25 68 C30 67, 32 65, 33 60 Z" fill="#ffffff" stroke="#ffffff" stroke-width="1" stroke-linejoin="round"/>
</svg>
